<?xml version="1.0" standalone="no"?><!DOCTYPE svg PUBLIC "-//W3C//DTD SVG 1.1//EN" "http://www.w3.org/Graphics/SVG/1.1/DTD/svg11.dtd"><svg t="1542684936419" class="icon" style="" viewBox="0 0 1471 1024" version="1.1" xmlns="http://www.w3.org/2000/svg" p-id="1491" xmlns:xlink="http://www.w3.org/1999/xlink" width="287.3046875" height="200"><defs><style type="text/css"></style></defs><path d="M1420.7263 793.611951c-6.399668-6.399668-108.794356 159.9917-371.180745 166.391369 0 0-44.797676-51.197344-76.796016-95.99502 153.592032-44.797676 211.189045-134.393028 211.189044-134.393029-51.197344 31.99834-95.99502 51.197344-134.393028 70.396348-57.597012 25.598672-115.194024 38.398008-172.791037 51.197345-115.194024 19.199004-217.588713 12.799336-307.184064 0-70.396348-12.799336-127.99336-31.99834-172.791037-51.197345-25.598672-12.799336-57.597012-25.598672-89.595352-38.398008-6.399668 0-6.399668-6.399668-12.799336-6.399668h-6.399668c-19.199004-12.799336-31.99834-19.199004-31.99834-19.199004s57.597012 89.595352 204.789376 134.393029c-38.398008 44.797676-76.796016 95.99502-76.796016 95.99502C121.593692 960.00332 25.598672 793.611951 25.598672 793.611951 25.598672 422.431206 198.389709 121.64681 198.389709 121.64681 371.180745-6.346551 531.172445 0.053117 531.172445 0.053117l12.799336 12.799336C332.782737 64.049797 236.787717 160.044818 236.787717 160.044818s25.598672-12.799336 70.396348-31.99834C435.177425 76.849133 531.172445 57.650129 575.970122 57.650129h19.199004c70.396348-6.399668 153.592032-12.799336 236.787716 0 115.194024 12.799336 230.388049 44.797676 358.381409 108.794357 0 0-95.99502-89.595352-294.384729-147.192365l19.199004-19.199004s159.9917-6.399668 332.782737 121.593693c0 0 172.791036 300.784397 172.791037 671.965141zM499.174105 678.417927c67.196514 0 121.593692-57.277029 121.593693-127.99336s-54.397178-127.99336-121.593693-127.993361c-67.196514 0-121.593692 57.277029-121.593692 127.993361s54.397178 127.99336 121.593692 127.99336z m454.37643 25.598672c67.196514 0 121.593692-57.277029 121.593692-127.99336s-54.397178-127.99336-121.593692-127.993361c-67.196514 0-121.593692 57.277029-121.593693 127.993361s54.397178 127.99336 121.593693 127.99336z" p-id="1492" fill="#525975"></path></svg>