<?xml version="1.0" encoding="UTF-8"?>
<svg width="23px" height="16px" viewBox="0 0 23 16" version="1.1" xmlns="http://www.w3.org/2000/svg" xmlns:xlink="http://www.w3.org/1999/xlink">
    <!-- Generator: Sketch 46.2 (44496) - http://www.bohemiancoding.com/sketch -->
    <title>Combined Shape</title>
    <desc>Created with Sketch.</desc>
    <defs></defs>
    <g id="Page-1" stroke="none" stroke-width="1" fill="none" fill-rule="evenodd">
        <path d="M22.2,12.4 C22.1,12.3 20.5,14.9 16.4,15 C16.4,15 15.7,14.2 15.2,13.5 C17.6,12.8 18.5,11.4 18.5,11.4 C17.7,11.9 17,12.2 16.4,12.5 C15.5,12.9 14.6,13.1 13.7,13.3 C11.9,13.6 10.3,13.5 8.9,13.3 C7.8,13.1 6.9,12.8 6.2,12.5 C5.8,12.3 5.3,12.1 4.8,11.9 C4.7,11.9 4.7,11.8 4.6,11.8 L4.5,11.8 C4.2,11.6 4,11.5 4,11.5 C4,11.5 4.9,12.9 7.2,13.6 C6.6,14.3 6,15.1 6,15.1 C1.9,15 0.4,12.4 0.4,12.4 C0.4,6.6 3.1,1.9 3.1,1.9 C5.8,-0.1 8.3,8.8828684e-16 8.3,8.8828684e-16 L8.5,0.2 C5.2,1 3.7,2.5 3.7,2.5 C3.7,2.5 4.1,2.3 4.8,2 C6.8,1.2 8.3,0.9 9,0.9 C9.1,0.9 9.2,0.9 9.3,0.9 C10.4,0.8 11.7,0.7 13,0.9 C14.8,1.1 16.6,1.6 18.6,2.6 C18.6,2.6 17.1,1.2 14,0.3 L14.3,-8.88069999e-16 C14.3,-8.88069999e-16 16.8,-0.1 19.5,1.9 C19.5,1.9 22.2,6.6 22.2,12.4 Z M7.8,10.6 C8.84934102,10.6 9.7,9.7045695 9.7,8.6 C9.7,7.4954305 8.84934102,6.6 7.8,6.6 C6.75065898,6.6 5.9,7.4954305 5.9,8.6 C5.9,9.7045695 6.75065898,10.6 7.8,10.6 Z M14.9,11 C15.949341,11 16.8,10.1045695 16.8,9 C16.8,7.8954305 15.949341,7 14.9,7 C13.850659,7 13,7.8954305 13,9 C13,10.1045695 13.850659,11 14.9,11 Z" id="Combined-Shape" fill="#FFFFFF" fill-rule="nonzero"></path>
    </g>
</svg>