<?xml version="1.0" standalone="no"?><!DOCTYPE svg PUBLIC "-//W3C//DTD SVG 1.1//EN" "http://www.w3.org/Graphics/SVG/1.1/DTD/svg11.dtd"><svg t="1542685524872" class="icon" style="" viewBox="0 0 1024 1024" version="1.1" xmlns="http://www.w3.org/2000/svg" p-id="1507" xmlns:xlink="http://www.w3.org/1999/xlink" width="200" height="200"><defs><style type="text/css"></style></defs><path d="M928 0h-832C43.2 0 0 43.2 0 96v832c0 52.8 43.2 96 96 96h832c52.8 0 96-43.2 96-96v-832c0-52.8-43.2-96-96-96z m-98.624 716.8l-93.632 1.408s-20.224 4.032-46.592-14.208c-35.008-24-68.032-86.592-93.824-78.4-25.984 8.192-25.216 64.384-25.216 64.384s0.192 12.032-5.824 18.368c-6.4 6.976-19.2 8.384-19.2 8.384h-41.792s-92.416 5.632-173.824-79.232C240.64 545.088 162.304 361.728 162.304 361.728s-4.608-12.032 0.384-17.792c5.568-6.592 20.608-6.976 20.608-6.976l100.224-0.576s9.408 1.6 16.192 6.592c5.632 4.032 8.576 11.776 8.576 11.776s16.192 41.024 37.632 78.016c41.792 72.192 61.376 88 75.584 80.384 20.608-11.2 14.4-102.208 14.4-102.208s0.384-33.024-10.368-47.616c-8.384-11.392-24.192-14.784-30.976-15.616-5.632-0.832 3.584-13.824 15.616-19.776 17.984-8.832 49.792-9.408 87.424-9.024 29.184 0.192 37.824 2.176 49.216 4.8 34.624 8.384 22.784 40.576 22.784 117.824 0 24.832-4.416 59.584 13.376 70.976 7.616 4.992 26.368 0.768 73.408-78.976 22.208-37.824 38.976-82.176 38.976-82.176s3.584-8 9.216-11.392c5.824-3.392 13.632-2.368 13.632-2.368l105.408-0.576s31.616-3.776 36.8 10.624c5.376 14.976-11.776 49.984-54.784 107.392-70.592 94.208-78.592 85.376-19.776 139.776 56 52.032 67.584 77.376 69.632 80.576 22.784 38.4-25.984 41.408-25.984 41.408z" p-id="1508" fill="#525975"></path></svg>