<!-- Generated by IcoMoon.io -->
<svg version="1.1" xmlns="http://www.w3.org/2000/svg" width="1469" height="1024" viewBox="0 0 1469 1024">
<title></title>
<g id="icomoon-ignore">
</g>
<path fill="#000" d="M419.939 481.627c1.445 7.232 1.445 15.91 1.445 23.14 0 43.388-18.801 89.668-54.957 140.288-30.372 40.495-66.528 76.652-109.916 108.469-39.050 28.926-66.528 41.941-80.991 40.495-15.91-1.445-43.388-13.016-82.438-34.711s-60.743-36.156-63.635-43.388c-1.445-1.445-1.445-4.339-1.445-7.232s1.445-7.232 2.894-11.571c1.445-4.339 2.894-8.677 2.894-11.571v-506.191c0-8.677 11.571-13.016 34.711-13.016 10.124 0 20.248 1.445 27.479 2.894 24.587-15.91 54.957-28.926 92.561-41.941 37.602-11.571 69.422-18.801 95.454-18.801 15.91 0 27.479 2.894 36.156 7.232s15.91 11.571 23.14 23.14c8.677 14.462 15.91 24.587 20.248 27.479 1.445 1.445 10.124 8.677 26.033 21.695 8.677 7.232 15.91 15.91 17.355 24.587 1.445 5.784 2.894 13.016 2.894 20.248 0 40.495-27.479 85.329-82.438 134.501 56.404 41.941 86.776 79.544 92.561 114.255zM283.99 228.532c-1.445-1.445-4.339-2.894-8.677-2.894-11.571 0-30.372 5.784-56.404 18.801s-43.388 24.587-52.066 36.156v80.991c33.264-26.033 62.189-53.512 86.776-80.991 24.587-28.926 34.711-46.28 30.372-52.066zM311.469 458.488c-13.016 0-36.156 7.232-69.422 20.248-34.711 14.462-60.743 27.479-75.206 41.941v144.627c33.264-8.677 66.528-37.602 99.792-85.329 33.264-49.173 47.727-88.222 44.833-121.485z"></path>
<path fill="#000" d="M626.754 160.558c0 4.339-1.445 8.677-2.894 14.462-2.894 5.784-4.339 10.124-4.339 11.571-2.894 10.124-5.784 26.033-8.677 47.727v480.158c0 5.784 1.445 11.571 4.339 17.355 2.894 4.339 4.339 8.677 4.339 11.571 0 33.264-5.784 50.618-18.801 53.512-4.339 1.445-21.695-2.894-49.173-10.124-28.926-8.677-44.833-14.462-50.618-18.801-11.571-10.124-17.355-18.801-17.355-27.479 0-1.445 1.445-4.339 2.894-7.232s2.894-7.232 2.894-13.016v-549.58c0-2.894-1.445-5.784-2.894-10.124-1.445-2.894-2.894-7.232-2.894-10.124 1.445-13.016 10.124-20.248 28.926-24.587 5.784-1.445 15.91-1.445 33.264 0 18.801 1.445 36.156 4.339 50.618 8.677 20.248 5.784 30.372 14.462 30.372 26.033z"></path>
<path fill="#000" d="M947.826 321.093c28.926 13.016 50.618 40.495 66.528 82.438 14.462 37.602 21.695 82.438 21.695 133.056 0 70.867-11.571 131.611-36.156 182.228-26.033 54.957-59.296 79.544-99.792 75.206-14.462-4.339-36.156-8.677-65.083-13.016-21.695-2.894-40.495-7.232-57.851-11.571-30.372-7.232-53.512-33.264-70.867-75.206-15.91-39.050-24.587-85.329-24.587-138.84s8.677-102.684 24.587-146.072c18.801-47.727 44.833-80.991 79.544-101.239 5.784-2.894 13.016-4.339 23.14-4.339s30.372 2.894 62.189 10.124c20.248-1.445 44.833 1.445 76.652 7.232zM861.048 390.514c-14.462 0-27.479 17.355-39.050 50.618-11.571 34.711-17.355 66.528-17.355 98.345 0 37.602 4.339 73.76 13.016 111.362 10.124 39.050 21.695 60.743 34.711 63.635 17.355 4.339 31.817-14.462 44.833-56.404 13.016-39.050 18.801-83.883 18.801-131.611 0-26.033-2.894-53.512-10.124-79.544-10.124-36.156-24.587-56.404-44.833-56.404z"></path>
<path fill="#000" d="M1438.106 355.804c0 0-2.894 5.784-8.677 15.91-4.339 7.232-5.784 13.016-5.784 17.355v342.763c0 86.776-31.817 141.734-95.454 166.321-30.372 11.571-56.404 17.355-80.991 17.355-34.711 0-66.528-11.571-92.561-36.156-7.232-5.784-20.248-20.248-37.602-40.495-1.445-1.445-5.784-5.784-14.462-14.462-5.784-5.784-8.677-11.571-8.677-17.355 0-7.232 7.232-14.462 23.14-18.801 1.445 0 5.784-1.445 8.677-1.445 11.571 0 24.587 2.894 40.495 7.232s27.479 10.124 33.264 17.355c8.677 10.124 17.355 21.695 26.033 31.817 8.677 11.571 18.801 17.355 31.817 17.355 21.695 1.445 34.711-13.016 41.941-43.388 2.894-14.462 4.339-41.941 4.339-80.991-1.445 1.445-7.232 8.677-14.462 20.248-5.784 8.677-11.571 14.462-15.91 17.355-5.784 5.784-11.571 7.232-17.355 7.232-27.479 0-50.618-7.232-69.422-23.14-56.404-46.28-83.883-115.7-83.883-206.817 0-57.851 11.571-109.916 36.156-154.75 26.033-49.173 59.296-79.544 99.792-92.561 2.894-1.445 5.784-1.445 8.677-1.445 8.677 0 17.355 4.339 27.479 11.571 8.677 7.232 17.355 14.462 26.033 21.695 2.894-8.677 5.784-17.355 10.124-26.033 2.894-8.677 8.677-13.016 15.91-14.462 11.571-1.445 30.372 1.445 57.851 10.124s43.388 15.91 47.727 21.695c7.232 10.124 8.677 20.248 5.784 28.926zM1299.266 546.71c4.339-36.156 5.784-65.083 5.784-88.222 0-41.941-7.232-66.528-20.248-70.867-11.571-4.339-24.587 14.462-40.495 54.957s-23.14 78.099-23.14 112.808c0 60.743 7.232 109.916 21.695 146.072 31.817-47.727 50.618-99.792 56.404-154.75z"></path>
</svg>
