<?xml version="1.0" encoding="utf-8"?>
<!-- Generator: Adobe Illustrator 21.0.0, SVG Export Plug-In . SVG Version: 6.00 Build 0)  -->
<svg version="1.1" id="图层_1" xmlns="http://www.w3.org/2000/svg" xmlns:xlink="http://www.w3.org/1999/xlink" x="0px" y="0px"
	 viewBox="0 0 109 76" style="enable-background:new 0 0 109 76;" xml:space="preserve">
<g>
	<path d="M32.6,35.3c0.1,0.5,0.1,1.1,0.1,1.6c0,3-1.3,6.2-3.8,9.7c-2.1,2.8-4.6,5.3-7.6,7.5c-2.7,2-4.6,2.9-5.6,2.8
		c-1.1-0.1-3-0.9-5.7-2.4c-2.7-1.5-4.2-2.5-4.4-3c-0.1-0.1-0.1-0.3-0.1-0.5c0-0.2,0.1-0.5,0.2-0.8c0.1-0.3,0.2-0.6,0.2-0.8v-35
		c0-0.6,0.8-0.9,2.4-0.9c0.7,0,1.4,0.1,1.9,0.2c1.7-1.1,3.8-2,6.4-2.9c2.6-0.8,4.8-1.3,6.6-1.3c1.1,0,1.9,0.2,2.5,0.5
		c0.6,0.3,1.1,0.8,1.6,1.6c0.6,1,1.1,1.7,1.4,1.9c0.1,0.1,0.7,0.6,1.8,1.5c0.6,0.5,1.1,1.1,1.2,1.7c0.1,0.4,0.2,0.9,0.2,1.4
		c0,2.8-1.9,5.9-5.7,9.3C30.1,30.3,32.2,32.9,32.6,35.3z M23.2,17.8c-0.1-0.1-0.3-0.2-0.6-0.2c-0.8,0-2.1,0.4-3.9,1.3
		c-1.8,0.9-3,1.7-3.6,2.5v5.6c2.3-1.8,4.3-3.7,6-5.6C22.8,19.4,23.5,18.2,23.2,17.8z M25.1,33.7c-0.9,0-2.5,0.5-4.8,1.4
		c-2.4,1-4.2,1.9-5.2,2.9v10c2.3-0.6,4.6-2.6,6.9-5.9C24.3,38.7,25.3,36,25.1,33.7z"/>
	<path d="M46.9,13.1c0,0.3-0.1,0.6-0.2,1c-0.2,0.4-0.3,0.7-0.3,0.8c-0.2,0.7-0.4,1.8-0.6,3.3v33.2c0,0.4,0.1,0.8,0.3,1.2
		c0.2,0.3,0.3,0.6,0.3,0.8c0,2.3-0.4,3.5-1.3,3.7c-0.3,0.1-1.5-0.2-3.4-0.7c-2-0.6-3.1-1-3.5-1.3c-0.8-0.7-1.2-1.3-1.2-1.9
		c0-0.1,0.1-0.3,0.2-0.5c0.1-0.2,0.2-0.5,0.2-0.9V13.8c0-0.2-0.1-0.4-0.2-0.7c-0.1-0.2-0.2-0.5-0.2-0.7c0.1-0.9,0.7-1.4,2-1.7
		c0.4-0.1,1.1-0.1,2.3,0c1.3,0.1,2.5,0.3,3.5,0.6C46.2,11.7,46.9,12.3,46.9,13.1z"/>
	<path d="M69.1,24.2c2,0.9,3.5,2.8,4.6,5.7c1,2.6,1.5,5.7,1.5,9.2c0,4.9-0.8,9.1-2.5,12.6c-1.8,3.8-4.1,5.5-6.9,5.2
		c-1-0.3-2.5-0.6-4.5-0.9c-1.5-0.2-2.8-0.5-4-0.8c-2.1-0.5-3.7-2.3-4.9-5.2c-1.1-2.7-1.7-5.9-1.7-9.6c0-3.7,0.6-7.1,1.7-10.1
		c1.3-3.3,3.1-5.6,5.5-7c0.4-0.2,0.9-0.3,1.6-0.3c0.7,0,2.1,0.2,4.3,0.7C65.2,23.6,66.9,23.8,69.1,24.2z M63.1,29
		c-1,0-1.9,1.2-2.7,3.5c-0.8,2.4-1.2,4.6-1.2,6.8c0,2.6,0.3,5.1,0.9,7.7c0.7,2.7,1.5,4.2,2.4,4.4c1.2,0.3,2.2-1,3.1-3.9
		c0.9-2.7,1.3-5.8,1.3-9.1c0-1.8-0.2-3.7-0.7-5.5C65.5,30.4,64.5,29,63.1,29z"/>
	<path d="M103,26.6c0,0-0.2,0.4-0.6,1.1c-0.3,0.5-0.4,0.9-0.4,1.2v23.7c0,6-2.2,9.8-6.6,11.5c-2.1,0.8-3.9,1.2-5.6,1.2
		c-2.4,0-4.6-0.8-6.4-2.5c-0.5-0.4-1.4-1.4-2.6-2.8c-0.1-0.1-0.4-0.4-1-1c-0.4-0.4-0.6-0.8-0.6-1.2c0-0.5,0.5-1,1.6-1.3
		c0.1,0,0.4-0.1,0.6-0.1c0.8,0,1.7,0.2,2.8,0.5c1.1,0.3,1.9,0.7,2.3,1.2c0.6,0.7,1.2,1.5,1.8,2.2c0.6,0.8,1.3,1.2,2.2,1.2
		c1.5,0.1,2.4-0.9,2.9-3c0.2-1,0.3-2.9,0.3-5.6c-0.1,0.1-0.5,0.6-1,1.4c-0.4,0.6-0.8,1-1.1,1.2c-0.4,0.4-0.8,0.5-1.2,0.5
		c-1.9,0-3.5-0.5-4.8-1.6c-3.9-3.2-5.8-8-5.8-14.3c0-4,0.8-7.6,2.5-10.7c1.8-3.4,4.1-5.5,6.9-6.4c0.2-0.1,0.4-0.1,0.6-0.1
		c0.6,0,1.2,0.3,1.9,0.8c0.6,0.5,1.2,1,1.8,1.5c0.2-0.6,0.4-1.2,0.7-1.8c0.2-0.6,0.6-0.9,1.1-1c0.8-0.1,2.1,0.1,4,0.7
		c1.9,0.6,3,1.1,3.3,1.5C103.1,25.3,103.2,26,103,26.6z M93.4,39.8c0.3-2.5,0.4-4.5,0.4-6.1c0-2.9-0.5-4.6-1.4-4.9
		c-0.8-0.3-1.7,1-2.8,3.8c-1.1,2.8-1.6,5.4-1.6,7.8c0,4.2,0.5,7.6,1.5,10.1C91.7,47.2,93,43.6,93.4,39.8z"/>
</g>
</svg>
